# xmcd
#
# Track frame offsets: 
#        150
#        20887
#        41097
#        66581
#        86660
#        119104
#        140187
#        164143
#        187605
#        207316
#        224352
#        245779
#
# Disc length: 3521 seconds
#
# Revision: 0
# Processed by: cddbd v1.5.2PL0 Copyright (c) Steve Scherf et al.
# Submitted via: ExactAudioCopyFreeDBPlugin 1.0
#
DISCID=ca0dbf0c
DTITLE=Azúcar, tabaco y ron - Se baila sabroso
DYEAR=2009
DGENRE=Salsa
TTITLE0=Son de la loma
TTITLE1=Qué manera
TTITLE2=Yolanda
TTITLE3=Con las maracas
TTITLE4=Basilón
TTITLE5=Ché comandante
TTITLE6=El cuarto de tula
TTITLE7=Guantanamera
TTITLE8=Minisero
TTITLE9=Yo soy el punto cubano
TTITLE10=Chan chan
TTITLE11=La negra tomasa
EXTD=
EXTT0=
EXTT1=
EXTT2=
EXTT3=
EXTT4=
EXTT5=
EXTT6=
EXTT7=
EXTT8=
EXTT9=
EXTT10=
EXTT11=
PLAYORDER=
